<svg width="16" height="16" xmlns="http://www.w3.org/2000/svg" aria-hidden="true" stroke-width="1.5" stroke="currentColor" fill="none">

 <g>
  <title>Layer 1</title>
  <path stroke="null" id="svg_1" d="m1.89912,9.95715l3.30705,-3.30705a1.44231,1.44231 0 0 1 2.03974,0l3.30705,3.30705m-0.96154,-0.96154l0.90321,-0.90321a1.44231,1.44231 0 0 1 2.03974,0l1.86474,1.86474m-11.53846,2.40385l10.57692,0a0.96154,0.96154 0 0 0 0.96154,-0.96154l0,-7.69231a0.96154,0.96154 0 0 0 -0.96154,-0.96154l-10.57692,0a0.96154,0.96154 0 0 0 -0.96154,0.96154l0,7.69231a0.96154,0.96154 0 0 0 0.96154,0.96154zm6.73077,-7.21154l0.00513,0l0,0.00513l-0.00513,0l0,-0.00513zm0.24038,0a0.24038,0.24038 0 1 1 -0.48077,0a0.24038,0.24038 0 0 1 0.48077,0z" stroke-linejoin="round" stroke-linecap="round"/>
 </g>
</svg>